HIERARCHY
ROOT hip
{
  OFFSET 0 0 0
  CHANNELS 6 Xposition Yposition Zposition Zrotation Yrotation Xrotation
  JOINT abdomen
  {
    OFFSET 0 20.6881 -0.73152
    CHANNELS 3 Zrotation Xrotation Yrotation
    JOINT chest
    {
      OFFSET 0 11.7043 -0.48768
      CHANNELS 3 Zrotation Xrotation Yrotation
      JOINT neck
      {
        OFFSET 0 22.1894 -2.19456
        CHANNELS 3 Zrotation Xrotation Yrotation
        JOINT head
        {
          OFFSET -0.24384 7.07133 1.2192
          CHANNELS 3 Zrotation Xrotation Yrotation
          JOINT leftEye
          {
            OFFSET 4.14528 8.04674 8.04672
            CHANNELS 3 Zrotation Xrotation Yrotation
            End Site
            {
              OFFSET 1 0 0
            }
          }
          JOINT rightEye
          {
            OFFSET -3.6576 8.04674 8.04672
            CHANNELS 3 Zrotation Xrotation Yrotation
            End Site
            {
              OFFSET 1 0 0
            }
          }
        }
      }
      JOINT rCollar
      {
        OFFSET -2.68224 19.2634 -4.8768
        CHANNELS 3 Zrotation Xrotation Yrotation
        JOINT rShldr
        {
          OFFSET -8.77824 -1.95073 1.46304
          CHANNELS 3 Zrotation Xrotation Yrotation
          JOINT rForeArm
          {
            OFFSET -28.1742 -1.7115 0.48768
            CHANNELS 3 Zrotation Xrotation Yrotation
            JOINT rHand
            {
              OFFSET -22.5879 0.773209 7.07136
              CHANNELS 3 Zrotation Xrotation Yrotation
              JOINT rThumb1
              {
                OFFSET -1.2192 -0.487915 3.41376
                CHANNELS 3 Zrotation Xrotation Yrotation
                JOINT rThumb2
                {
                  OFFSET -3.37035 -0.52449 3.41376
                  CHANNELS 3 Zrotation Xrotation Yrotation
                  End Site
                  {
                    OFFSET -1.78271 -1.18214 1.43049
                  }
                }
              }
              JOINT rIndex1
              {
                OFFSET -7.75947 0.938293 5.60832
                CHANNELS 3 Zrotation Xrotation Yrotation
                JOINT rIndex2
                {
                  OFFSET -2.54057 -0.884171 1.56538
                  CHANNELS 3 Zrotation Xrotation Yrotation
                  End Site
                  {
                    OFFSET -1.62519 -0.234802 1.16502
                  }
                }
              }
              JOINT rMid1
              {
                OFFSET -8.24714 1.18213 3.41376
                CHANNELS 3 Zrotation Xrotation Yrotation
                JOINT rMid2
                {
                  OFFSET -3.10165 -0.590103 1.0647
                  CHANNELS 3 Zrotation Xrotation Yrotation
                  End Site
                  {
                    OFFSET -2.48547 -0.328903 0.83742
                  }
                }
              }
              JOINT rRing1
              {
                OFFSET -8.82822 0.546677 1.51678
                CHANNELS 3 Zrotation Xrotation Yrotation
                JOINT rRing2
                {
                  OFFSET -2.60934 -0.819778 -0.0198488
                  CHANNELS 3 Zrotation Xrotation Yrotation
                  End Site
                  {
                    OFFSET -2.33842 -0.294052 0.168128
                  }
                }
              }
              JOINT rPinky1
              {
                OFFSET -8.27202 -0.0477905 -0.4584
                CHANNELS 3 Zrotation Xrotation Yrotation
                JOINT rPinky2
                {
                  OFFSET -1.82734 -0.647385 -0.700984
                  CHANNELS 3 Zrotation Xrotation Yrotation
                  End Site
                  {
                    OFFSET -1.69225 -0.51767 -0.607171
                  }
                }
              }
            }
          }
        }
      }
      JOINT lCollar
      {
        OFFSET 2.68224 19.2634 -4.8768
        CHANNELS 3 Zrotation Xrotation Yrotation
        JOINT lShldr
        {
          OFFSET 8.77824 -1.95073 1.46304
          CHANNELS 3 Zrotation Xrotation Yrotation
          JOINT lForeArm
          {
            OFFSET 28.1742 -1.7115 0.48768
            CHANNELS 3 Zrotation Xrotation Yrotation
            JOINT lHand
            {
              OFFSET 22.5879 0.773209 7.07136
              CHANNELS 3 Zrotation Xrotation Yrotation
              JOINT lThumb1
              {
                OFFSET 1.2192 -0.487915 3.41376
                CHANNELS 3 Zrotation Xrotation Yrotation
                JOINT lThumb2
                {
                  OFFSET 3.37035 -0.52449 3.41376
                  CHANNELS 3 Zrotation Xrotation Yrotation
                  End Site
                  {
                    OFFSET 1.78271 -1.18214 1.43049
                  }
                }
              }
              JOINT lIndex1
              {
                OFFSET 7.75947 0.938293 5.60832
                CHANNELS 3 Zrotation Xrotation Yrotation
                JOINT lIndex2
                {
                  OFFSET 2.54057 -0.884171 1.56538
                  CHANNELS 3 Zrotation Xrotation Yrotation
                  End Site
                  {
                    OFFSET 1.62519 -0.234802 1.16502
                  }
                }
              }
              JOINT lMid1
              {
                OFFSET 8.24714 1.18213 3.41376
                CHANNELS 3 Zrotation Xrotation Yrotation
                JOINT lMid2
                {
                  OFFSET 3.10165 -0.590103 1.0647
                  CHANNELS 3 Zrotation Xrotation Yrotation
                  End Site
                  {
                    OFFSET 2.48547 -0.328903 0.83742
                  }
                }
              }
              JOINT lRing1
              {
                OFFSET 8.82822 0.546677 1.51678
                CHANNELS 3 Zrotation Xrotation Yrotation
                JOINT lRing2
                {
                  OFFSET 2.60934 -0.819778 -0.0198488
                  CHANNELS 3 Zrotation Xrotation Yrotation
                  End Site
                  {
                    OFFSET 2.33842 -0.294052 0.168128
                  }
                }
              }
              JOINT lPinky1
              {
                OFFSET 8.27202 -0.0477905 -0.4584
                CHANNELS 3 Zrotation Xrotation Yrotation
                JOINT lPinky2
                {
                  OFFSET 1.82734 -0.647385 -0.700984
                  CHANNELS 3 Zrotation Xrotation Yrotation
                  End Site
                  {
                    OFFSET 1.69225 -0.51767 -0.607171
                  }
                }
              }
            }
          }
        }
      }
    }
  }
  JOINT rButtock
  {
    OFFSET -8.77824 4.35084 1.2192
    CHANNELS 3 Zrotation Xrotation Yrotation
    JOINT rThigh
    {
      OFFSET 0 -1.70687 -2.19456
      CHANNELS 3 Zrotation Xrotation Yrotation
      JOINT rShin
      {
        OFFSET 0 -36.8199 0.73152
        CHANNELS 3 Zrotation Xrotation Yrotation
        JOINT rFoot
        {
          OFFSET 0.73152 -45.1104 -5.12064
          CHANNELS 3 Zrotation Xrotation Yrotation
          End Site
          {
            OFFSET -1.1221 -3.69964 12.103
          }
        }
      }
    }
  }
  JOINT lButtock
  {
    OFFSET 8.77824 4.35084 1.2192
    CHANNELS 3 Zrotation Xrotation Yrotation
    JOINT lThigh
    {
      OFFSET 0 -1.70687 -2.19456
      CHANNELS 3 Zrotation Xrotation Yrotation
      JOINT lShin
      {
        OFFSET 0 -36.8199 0.73152
        CHANNELS 3 Zrotation Xrotation Yrotation
        JOINT lFoot
        {
          OFFSET -0.73152 -45.1104 -5.12064
          CHANNELS 3 Zrotation Xrotation Yrotation
          End Site
          {
            OFFSET 1.1221 -3.69964 12.103
          }
        }
      }
    }
  }
}
MOTION
Frames:	7
Frame Time:	0.00833333
15.0236 83.5944 48.9464 -11.3141 21.1897 -13.7742 1.92905 12.0387 -4.82726 6.56113 -1.98765 -1.14013 8.13113 6.22623 -0.537772 -9.14796 -14.8339 -3.6441 -0.0 0.0 0.0 -0.0 0.0 0.0 3.95184e-13 -1.49286e-13 -1.46156e-13 71.2266 43.0392 -0.984665 -27.7792 -29.4275 66.3359 -0.311452 15.6822 2.26131 -2.61421e-09 -1.36575e-08 1.5668e-09 -4.49459e-09 -2.36352e-08 2.73459e-09 -2.61421e-09 -1.36575e-08 1.56678e-09 7.73091 5.47488 0.417314 -2.61422e-09 -1.36575e-08 1.5668e-09 2.90554 0.965183 0.102902 -2.61421e-09 -1.36575e-08 1.56679e-09 10.2786 0.731801 0.0259123 -2.61422e-09 -1.36575e-08 1.5668e-09 2.22167 -0.733487 -0.20892 3.94961e-13 -1.4929e-13 -1.46455e-13 -85.8819 25.9492 16.0047 16.1992 -8.87352 -30.0941 0.104225 -9.16861 1.29979 -4.64291e-09 -1.90098e-10 -9.47688e-10 -8.01313e-09 -3.11946e-10 -1.66747e-09 -4.64291e-09 -1.90091e-10 -9.47678e-10 -7.73091 5.47488 -0.417314 -4.64291e-09 -1.90097e-10 -9.47691e-10 -2.90554 0.965183 -0.102902 -4.64292e-09 -1.90094e-10 -9.4769e-10 -10.2786 0.731801 -0.0259123 -4.64291e-09 -1.90094e-10 -9.477e-10 -2.22167 -0.733487 0.20892 -2.03217e-16 0.0 -3.88251e-19 -11.3735 -55.3367 34.6291 -0.177433 28.0963 0.155062 3.56996 16.0346 -14.7326 2.03217e-16 0.0 3.88251e-19 15.7087 -16.7143 21.805 0.401614 46.3108 -1.34087 5.4159 -20.2965 14.3472
15.163 83.6345 49.4873 -12.1314 22.4479 -14.4446 2.76399 12.4546 -5.19374 6.75164 -2.18178 -1.19395 7.96497 5.99414 -0.620176 -9.49207 -14.9137 -3.86635 -0.0 0.0 0.0 -0.0 0.0 0.0 2.97077e-13 -9.17265e-14 -2.18067e-13 70.8084 43.2962 -0.188777 -27.7724 -29.3954 66.2877 -0.307864 15.5904 2.24744 -2.17106e-09 -1.26064e-08 1.65448e-09 -3.72806e-09 -2.18042e-08 2.8821e-09 -2.17106e-09 -1.26064e-08 1.65447e-09 7.73091 5.47488 0.417314 -2.17107e-09 -1.26064e-08 1.65448e-09 2.90554 0.965183 0.102902 -2.17106e-09 -1.26064e-08 1.65447e-09 10.2786 0.731801 0.0259123 -2.17107e-09 -1.26064e-08 1.65448e-09 2.22167 -0.733487 -0.20892 2.96876e-13 -9.17289e-14 -2.18391e-13 -85.8201 26.3328 15.2313 16.2418 -8.91371 -30.185 0.103614 -9.13513 1.29498 -3.20095e-09 6.33609e-10 -8.78869e-10 -5.52196e-09 1.11078e-09 -1.54052e-09 -3.20095e-09 6.33617e-10 -8.78858e-10 -7.73091 5.47488 -0.417314 -3.20095e-09 6.33611e-10 -8.7887e-10 -2.90554 0.965183 -0.102902 -3.20097e-09 6.33613e-10 -8.78869e-10 -10.2786 0.731801 -0.0259123 -3.20095e-09 6.33612e-10 -8.78877e-10 -2.22167 -0.733487 0.20892 -2.03217e-16 0.0 -3.88251e-19 -13.2923 -55.7749 32.1633 -0.171931 26.5051 0.110269 3.13547 14.9957 -13.6605 2.03217e-16 0.0 3.88251e-19 16.1187 -16.5043 20.6956 0.408575 46.5483 -1.3468 5.3992 -20.3583 14.3192
15.2822 83.6479 50.0742 -13.0335 23.6959 -15.3273 3.5972 13.0859 -5.52231 6.9691 -2.4178 -1.22931 7.76188 5.77481 -0.740452 -9.86184 -15.1479 -4.17173 -0.0 0.0 0.0 -0.0 0.0 0.0 1.14741e-13 -4.45408e-15 -3.39307e-13 70.3095 43.5714 0.654851 -27.764 -29.3565 66.2308 -0.306863 15.5636 2.24341 -1.12666e-09 -8.92535e-09 1.53366e-09 -1.92561e-09 -1.54137e-08 2.66303e-09 -1.12666e-09 -8.92533e-09 1.53365e-09 7.73091 5.47488 0.417314 -1.12666e-09 -8.92533e-09 1.53366e-09 2.90554 0.965183 0.102902 -1.12665e-09 -8.92535e-09 1.53365e-09 10.2786 0.731801 0.0259123 -1.12666e-09 -8.92534e-09 1.53366e-09 2.22167 -0.733487 -0.20892 1.1459e-13 -4.45419e-15 -3.39664e-13 -85.7563 26.6775 14.3803 16.2794 -8.94924 -30.2649 0.0984785 -8.90848 1.26232 -6.24966e-10 2.01425e-09 -8.72738e-10 -1.07133e-09 3.49547e-09 -1.51586e-09 -6.24969e-10 2.01426e-09 -8.72727e-10 -7.73091 5.47488 -0.417314 -6.24965e-10 2.01425e-09 -8.72739e-10 -2.90554 0.965183 -0.102902 -6.2498e-10 2.01426e-09 -8.72737e-10 -10.2786 0.731801 -0.0259123 -6.24969e-10 2.01425e-09 -8.72741e-10 -2.22167 -0.733487 0.20892 -2.03217e-16 0.0 -3.88251e-19 -16.1387 -56.6175 26.438 -0.165636 25.7868 0.101253 2.47338 14.4059 -10.5702 2.03217e-16 0.0 3.88251e-19 16.5557 -16.2606 19.4702 0.417839 46.9615 -1.37028 5.42513 -20.4816 14.3447
15.3626 83.6451 50.7206 -14.016 24.8466 -16.3792 4.36638 13.7816 -5.78361 7.212 -2.65871 -1.24303 7.54497 5.55415 -0.905557 -10.1837 -15.4056 -4.55825 -0.0 0.0 0.0 -0.0 0.0 0.0 -6.25809e-14 5.93773e-14 -5.19036e-13 69.8059 43.8094 1.50656 -27.7492 -29.2859 66.119 -0.308711 15.6101 2.25044 -6.36142e-11 -5.09771e-09 1.48826e-09 -8.96186e-11 -8.76482e-09 2.57417e-09 -6.36129e-11 -5.0977e-09 1.48826e-09 7.73091 5.47488 0.417314 -6.36135e-11 -5.09769e-09 1.48826e-09 2.90554 0.965183 0.102902 -6.36097e-11 -5.0977e-09 1.48826e-09 10.2786 0.731801 0.0259123 -6.36207e-11 -5.0977e-09 1.48826e-09 2.22167 -0.733487 -0.20892 -6.26839e-14 5.93795e-14 -5.19422e-13 -85.6657 27.0559 13.4533 16.302 -8.97075 -30.3131 0.0934462 -8.6798 1.2294 1.99668e-09 3.59331e-09 -1.07842e-09 3.45998e-09 6.2254e-09 -1.85744e-09 1.99668e-09 3.59332e-09 -1.07841e-09 -7.73091 5.47488 -0.417314 1.99668e-09 3.59332e-09 -1.07842e-09 -2.90554 0.965183 -0.102902 1.99667e-09 3.59332e-09 -1.07842e-09 -10.2786 0.731801 -0.0259123 1.99668e-09 3.59331e-09 -1.07842e-09 -2.22167 -0.733487 0.20892 -2.03217e-16 0.0 -3.88251e-19 -19.3508 -57.3451 19.4624 -0.159384 25.8137 0.11962 1.82339 14.1529 -6.84119 2.03217e-16 0.0 3.88251e-19 17.0341 -15.9924 18.2157 0.426972 47.433 -1.40519 5.45514 -20.6368 14.3658
15.4082 83.6355 51.4167 -15.0598 25.8884 -17.5541 5.00424 14.3915 -5.94654 7.47898 -2.86752 -1.23195 7.33715 5.31809 -1.12243 -10.3812 -15.5558 -5.02298 -0.0 0.0 0.0 -0.0 0.0 0.0 -1.45647e-13 4.66131e-14 -7.66414e-13 69.3791 43.9558 2.3229 -27.7228 -29.1577 65.9063 -0.313758 15.7383 2.26982 4.3544e-10 -3.60677e-09 1.80221e-09 7.77514e-10 -6.15883e-09 3.11232e-09 4.35441e-10 -3.60677e-09 1.8022e-09 7.73091 5.47488 0.417314 4.35442e-10 -3.60674e-09 1.8022e-09 2.90554 0.965183 0.102902 4.35445e-10 -3.60677e-09 1.8022e-09 10.2786 0.731801 0.0259123 4.35434e-10 -3.60676e-09 1.8022e-09 2.22167 -0.733487 -0.20892 -1.45732e-13 4.66169e-14 -7.66812e-13 -85.5179 27.5417 12.45 16.2999 -8.96893 -30.3084 0.0924451 -8.64023 1.22369 3.57563e-09 5.01228e-09 -1.64503e-09 6.1932e-09 8.68383e-09 -2.82924e-09 3.57562e-09 5.01229e-09 -1.64502e-09 -7.73091 5.47488 -0.417314 3.57563e-09 5.01228e-09 -1.64503e-09 -2.90554 0.965183 -0.102902 3.57562e-09 5.01228e-09 -1.64503e-09 -10.2786 0.731801 -0.0259123 3.57563e-09 5.01228e-09 -1.64503e-09 -2.22167 -0.733487 0.20892 -2.03217e-16 0.0 -3.88251e-19 -22.0873 -57.8499 13.5786 -0.156622 26.4586 0.158218 1.35751 14.2032 -3.84251 2.03217e-16 0.0 3.88251e-19 17.5652 -15.7119 17.0182 0.43304 47.8451 -1.44498 5.45006 -20.7944 14.3242
15.4233 83.6343 52.1406 -16.1392 26.8648 -18.7732 5.49402 14.9454 -5.95578 7.78958 -3.02405 -1.1791 7.1666 5.06148 -1.38001 -10.4855 -15.5833 -5.55262 -0.0 0.0 0.0 -0.0 0.0 0.0 -7.9254e-14 -1.04977e-13 -1.21282e-12 68.9557 44.0382 3.18826 -27.6774 -28.9435 65.5543 -0.324765 16.0117 2.31128 1.28938e-11 -6.25814e-09 2.93119e-09 6.48329e-11 -1.07112e-08 5.06913e-09 1.2895e-11 -6.25814e-09 2.93118e-09 7.73091 5.47488 0.417314 1.28948e-11 -6.25811e-09 2.93119e-09 2.90554 0.965183 0.102902 1.2899e-11 -6.25814e-09 2.93119e-09 10.2786 0.731801 0.0259123 1.28874e-11 -6.25813e-09 2.93119e-09 2.22167 -0.733487 -0.20892 -7.93697e-14 -1.04972e-13 -1.2132e-12 -85.3234 28.1365 11.3967 16.2829 -8.95193 -30.2738 0.0985277 -8.93862 1.26656 3.7223e-09 6.6308e-09 -3.03054e-09 6.4596e-09 1.14985e-08 -5.22581e-09 3.7223e-09 6.63081e-09 -3.03053e-09 -7.73091 5.47488 -0.417314 3.7223e-09 6.6308e-09 -3.03054e-09 -2.90554 0.965183 -0.102902 3.72229e-09 6.6308e-09 -3.03053e-09 -10.2786 0.731801 -0.0259123 3.7223e-09 6.6308e-09 -3.03053e-09 -2.22167 -0.733487 0.20892 -2.03217e-16 0.0 -3.88251e-19 -24.0 -58.4235 9.24262 -0.168005 27.8368 0.220852 1.06805 14.6777 -1.87668 2.03217e-16 0.0 3.88251e-19 18.1699 -15.3165 15.9234 0.434531 48.1752 -1.49217 5.41885 -20.9838 14.2285
15.4079 83.6522 52.8657 -17.2456 27.8614 -19.9587 5.86476 15.5009 -5.84204 8.13833 -3.15147 -1.09151 7.01252 4.79226 -1.67881 -10.5184 -15.5507 -6.15229 -0.0 0.0 0.0 -0.0 0.0 0.0 7.85332e-14 -3.51025e-13 -1.81038e-12 68.5295 44.0707 4.08993 -27.614 -28.6595 65.1001 -0.341333 16.4054 2.37128 -9.53105e-10 -1.13462e-08 4.59712e-09 -1.5785e-09 -1.94718e-08 7.95992e-09 -9.53103e-10 -1.13462e-08 4.59711e-09 7.73091 5.47488 0.417314 -9.53105e-10 -1.13462e-08 4.59712e-09 2.90554 0.965183 0.102902 -9.53101e-10 -1.13462e-08 4.59712e-09 10.2786 0.731801 0.0259123 -9.53112e-10 -1.13462e-08 4.59712e-09 2.22167 -0.733487 -0.20892 7.83566e-14 -3.51021e-13 -1.81074e-12 -85.0806 28.8058 10.2796 16.2518 -8.92117 -30.2109 0.109857 -9.44038 1.3389 3.05027e-09 8.48833e-09 -5.016e-09 5.31711e-09 1.47342e-08 -8.66499e-09 3.05027e-09 8.48834e-09 -5.01599e-09 -7.73091 5.47488 -0.417314 3.05027e-09 8.48834e-09 -5.016e-09 -2.90554 0.965183 -0.102902 3.05026e-09 8.48834e-09 -5.01599e-09 -10.2786 0.731801 -0.0259123 3.05027e-09 8.48833e-09 -5.016e-09 -2.22167 -0.733487 0.20892 -2.03217e-16 0.0 -3.88251e-19 -25.6201 -59.1029 5.25095 -0.194626 29.9663 0.312598 0.796368 15.5726 -0.213695 2.03217e-16 0.0 3.88251e-19 18.8408 -14.8357 14.8796 0.433574 48.4829 -1.54905 5.37517 -21.2083 14.1014
